<?xml version="1.0" standalone="no"?><!DOCTYPE svg PUBLIC "-//W3C//DTD SVG 1.1//EN" "http://www.w3.org/Graphics/SVG/1.1/DTD/svg11.dtd"><svg t="1546862669466" class="icon" style="" viewBox="0 0 1024 1024" version="1.1" xmlns="http://www.w3.org/2000/svg" p-id="4431" xmlns:xlink="http://www.w3.org/1999/xlink" width="200" height="200"><defs><style type="text/css"></style></defs><path d="M652.418 419.44c-4.028 0-8.122-0.765-12.082-2.381-16.362-6.679-24.212-25.358-17.533-41.72 4.794-11.744 7.225-24.035 7.225-36.531V225.35c0-53.853-43.813-97.666-97.665-97.666h-32.416c-53.853 0-97.666 43.813-97.666 97.666v113.457c0 12.496 2.431 24.786 7.225 36.531 6.679 16.362-1.171 35.041-17.534 41.72-16.364 6.679-35.042-1.171-41.72-17.534-7.943-19.46-11.971-39.889-11.971-60.718V225.35c0-89.143 72.523-161.666 161.666-161.666h32.416c89.143 0 161.665 72.523 161.665 161.666v113.457c0 20.83-4.027 41.258-11.971 60.718-5.063 12.402-17.022 19.915-29.639 19.915z" p-id="4432"></path><path d="M855.995 850.78l-0.012-0.136-46.066-520.526c-1.841-21.603-11.373-41.887-26.847-57.127-15.784-15.546-36.004-24.204-57.043-24.492v90.309c0 24.997-4.826 49.495-14.344 72.812-9.874 24.19-33.137 39.821-59.266 39.821-8.312 0-16.445-1.6-24.174-4.754-32.674-13.337-48.404-50.769-35.068-83.441 3.22-7.887 4.852-16.108 4.852-24.438v-90.336H434.281v90.336c0 8.329 1.632 16.551 4.852 24.438 13.336 32.673-2.395 70.104-35.067 83.441a63.691 63.691 0 0 1-24.104 4.747c-25.249 0.002-49.221-15.033-59.336-39.814-9.518-23.318-14.344-47.816-14.344-72.811v-90.336h-7.23c-21.426 0-42.066 8.708-58.12 24.519-15.479 15.245-25.012 35.539-26.849 57.149l-46.065 520.505-0.012 0.137c-2.679 31.823 6.857 62.12 26.164 83.122 15.659 17.032 36.492 26.413 58.66 26.413h518.344c22.168 0 43.001-9.381 58.66-26.414 19.306-21.003 28.842-51.3 26.161-83.124z" p-id="4433"></path></svg>