<?xml version="1.0" standalone="no"?><!DOCTYPE svg PUBLIC "-//W3C//DTD SVG 1.1//EN" "http://www.w3.org/Graphics/SVG/1.1/DTD/svg11.dtd"><svg t="1546852608910" class="icon" style="" viewBox="0 0 1024 1024" version="1.1" xmlns="http://www.w3.org/2000/svg" p-id="28649" xmlns:xlink="http://www.w3.org/1999/xlink" width="200" height="200"><defs><style type="text/css"></style></defs><path d="M802.133333 409.6c-10.24 0-17.066667-6.826667-17.066666-17.066667V136.533333c0-64.853333-61.44-102.4-119.466667-102.4H341.333333C276.48 34.133333 238.933333 95.573333 238.933333 153.6v238.933333c0 10.24-6.826667 17.066667-17.066666 17.066667s-17.066667-6.826667-17.066667-17.066667v-238.933333C204.8 68.266667 266.24 0 341.333333 0h324.266667C750.933333 0 819.2 61.44 819.2 136.533333v256c0 10.24-6.826667 17.066667-17.066667 17.066667z" fill="" p-id="28650"></path><path d="M802.133333 409.6c10.24 0 17.066667-6.826667 17.066667-17.066667V238.933333h-34.133333v153.6c0 10.24 6.826667 17.066667 17.066666 17.066667zM221.866667 409.6c10.24 0 17.066667-6.826667 17.066666-17.066667V238.933333H204.8v153.6c0 10.24 6.826667 17.066667 17.066667 17.066667z" fill="" p-id="28651"></path><path d="M1024 1000.106667L887.466667 252.586667c0-6.826667-10.24-13.653333-17.066667-13.653334H853.333333v153.6c0 27.306667-23.893333 51.2-51.2 51.2s-51.2-23.893333-51.2-51.2V238.933333H273.066667v153.6c0 27.306667-23.893333 51.2-51.2 51.2S170.666667 419.84 170.666667 392.533333V238.933333h-17.066667c-10.24 0-17.066667 6.826667-17.066667 13.653334l-136.533333 750.933333c0 3.413333 0 10.24 3.413333 13.653333 3.413333 3.413333 6.826667 6.826667 13.653334 6.826667h989.866666c10.24 0 17.066667-6.826667 17.066667-17.066667v-6.826666zM870.4 853.333333h-716.8c-10.24 0-17.066667-6.826667-17.066667-17.066666s6.826667-17.066667 17.066667-17.066667h716.8c10.24 0 17.066667 6.826667 17.066667 17.066667s-6.826667 17.066667-17.066667 17.066666z" fill="" p-id="28652"></path></svg>