<?xml version="1.0" standalone="no"?><!DOCTYPE svg PUBLIC "-//W3C//DTD SVG 1.1//EN" "http://www.w3.org/Graphics/SVG/1.1/DTD/svg11.dtd"><svg t="1546830934822" class="icon" style="" viewBox="0 0 1152 1024" version="1.1" xmlns="http://www.w3.org/2000/svg" p-id="1717" xmlns:xlink="http://www.w3.org/1999/xlink" width="225" height="200"><defs><style type="text/css"></style></defs><path d="M224 128h-192c-17.6 0-32 14.4-32 32v704c0 17.6 14.4 32 32 32h192c17.6 0 32-14.4 32-32v-704c0-17.6-14.4-32-32-32zM192 320H64V256h128v64zM544 128h-192c-17.6 0-32 14.4-32 32v704c0 17.6 14.4 32 32 32h192c17.6 0 32-14.4 32-32v-704c0-17.6-14.4-32-32-32zM512 320H384V256h128v64z" fill="" p-id="1718"></path><path d="M765.056 177.472l-171.456 86.4a32.128 32.128 0 0 0-14.208 42.944l288 571.52a32.128 32.128 0 0 0 42.944 14.208l171.456-86.4a32.128 32.128 0 0 0 14.208-42.944l-288-571.52a32.128 32.128 0 0 0-42.944-14.208z" fill="" p-id="1719"></path><path d="M928 864a32 32 0 1 1-64 0 32 32 0 0 1 64 0z" fill="" p-id="1720"></path></svg>