<?xml version="1.0" standalone="no"?><!DOCTYPE svg PUBLIC "-//W3C//DTD SVG 1.1//EN" "http://www.w3.org/Graphics/SVG/1.1/DTD/svg11.dtd"><svg t="1547002279901" class="icon" style="" viewBox="0 0 1024 1024" version="1.1" xmlns="http://www.w3.org/2000/svg" p-id="34889" xmlns:xlink="http://www.w3.org/1999/xlink" width="200" height="200"><defs><style type="text/css"></style></defs><path d="M608 934.4h-42.666667V153.6c0-8.533333-2.133333-17.066667-8.533333-19.2s-12.8-2.133333-21.333333 0l-298.666667 130.133333c-23.466667 10.666667-46.933333 42.666667-46.933333 70.4v599.466667h-42.666667V332.8c0-42.666667 32-91.733333 72.533333-108.8l298.666667-130.133333c21.333333-8.533333 44.8-8.533333 61.866667 2.133333 17.066667 12.8 27.733333 32 27.733333 57.6v780.8z" p-id="34890"></path><path d="M864 851.2c-12.8 0-21.333333-8.533333-21.333333-21.333333V556.8c0-25.6-21.333333-55.466667-46.933334-64L640 441.6c-8.533333-2.133333-17.066667-2.133333-23.466667 2.133333-6.4 4.266667-8.533333 12.8-8.533333 21.333334v364.8c0 12.8-8.533333 21.333333-21.333333 21.333333s-21.333333-8.533333-21.333334-21.333333V465.066667c0-23.466667 10.666667-44.8 27.733334-57.6 17.066667-12.8 40.533333-14.933333 61.866666-6.4l157.866667 53.333333c42.666667 14.933333 74.666667 59.733333 74.666667 104.533333V832c-2.133333 10.666667-10.666667 19.2-23.466667 19.2z" p-id="34891"></path><path d="M302.933333 428.8m-32 0a32 32 0 1 0 64 0 32 32 0 1 0-64 0Z" p-id="34892"></path><path d="M450.133333 428.8m-32 0a32 32 0 1 0 64 0 32 32 0 1 0-64 0Z" p-id="34893"></path><path d="M302.933333 584.533333m-32 0a32 32 0 1 0 64 0 32 32 0 1 0-64 0Z" p-id="34894"></path><path d="M450.133333 584.533333m-32 0a32 32 0 1 0 64 0 32 32 0 1 0-64 0Z" p-id="34895"></path><path d="M302.933333 744.533333m-32 0a32 32 0 1 0 64 0 32 32 0 1 0-64 0Z" p-id="34896"></path><path d="M450.133333 744.533333m-32 0a32 32 0 1 0 64 0 32 32 0 1 0-64 0Z" p-id="34897"></path><path d="M725.333333 627.2m-32 0a32 32 0 1 0 64 0 32 32 0 1 0-64 0Z" p-id="34898"></path><path d="M725.333333 765.866667m-32 0a32 32 0 1 0 64 0 32 32 0 1 0-64 0Z" p-id="34899"></path><path d="M932.266667 955.733333H85.333333c-12.8 0-21.333333-8.533333-21.333333-21.333333s8.533333-21.333333 21.333333-21.333333h849.066667c12.8 0 21.333333 8.533333 21.333333 21.333333s-10.666667 21.333333-23.466666 21.333333z" p-id="34900"></path></svg>