<?xml version="1.0" standalone="no"?><!DOCTYPE svg PUBLIC "-//W3C//DTD SVG 1.1//EN" "http://www.w3.org/Graphics/SVG/1.1/DTD/svg11.dtd"><svg t="1554256347502" class="icon" style="" viewBox="0 0 1024 1024" version="1.1" xmlns="http://www.w3.org/2000/svg" p-id="23507" xmlns:xlink="http://www.w3.org/1999/xlink" width="200" height="200"><defs><style type="text/css"></style></defs><path d="M832.940951 486.68034c-11.935431-3.937863-24.852768-5.905771-38.328124-5.905771-26.143888 0-52.785384 7.906442-75.115299 20.732654 0.673717-10.643288 1.228662-21.409442 1.536852-32.299486 0.186347-7.566513-8.489033-22.947318-23.992705-22.947318H142.855552c-16.732334 0-24.669493 16.026877-24.48417 23.930248 0.122866 4.123186 0.245732 8.183915 0.431056 12.24362 6.089046 148.883165 50.999728 274.787272 149.988961 335.78524h-0.122866c3.32046 24.424784 24.298847 43.216152 49.585743 43.216152h204.497544c25.160958 0 46.016478-18.609116 49.462876-42.847553h-0.922521c23.378374-14.271938 43.125026-32.730542 60.53722-53.645448 39.864975-19.658598 94.556834-40.72811 163.769434-62.90649 86.804998-27.870159 105.01787-78.101973 105.01787-115.351945-0.001024-49.43216-24.670517-85.854832-67.675748-100.003903z" fill="#2c2c2c" p-id="23508" data-spm-anchor-id="a313x.7781069.0.i14" class=""></path><path d="M781.326891 657.493081c-39.559857 12.64396-75.119395 25.286896-106.063257 37.376934 17.286256-37.682052 29.713152-80.010495 37.032909-126.367927 2.399987-1.506135 4.678132-3.22831 6.400307-5.565841 15.626538-21.16371 45.957093-35.376262 75.547379-35.376262 8.611899 0 16.735406 1.199994 24.115571 3.631722 23.441855 7.780505 35.376262 26.421361 35.376262 55.491512 0 11.749084 0 47.557426-72.409171 70.809862z" fill="#ffffff" p-id="23509" data-spm-anchor-id="a313x.7781069.0.i21" class=""></path><path d="M570.30515 415.067752c-12.612219 0-22.883837-10.271618-22.883837-22.915577 0-21.378726-6.583583-28.639096-15.690019-38.605596-9.657286-10.611548-22.760971-25.038092-22.760971-51.98573 0-36.573184 25.283824-52.600061 40.35644-62.197962 9.352169-5.843314 12.735086-8.489033 13.843954-10.54909 2.091798-1.877806-0.494537-13.689347-12.366487-33.253748-6.583583-10.766154-3.137185-24.85584 7.628969-31.436351 3.62865-2.217736 7.689379-3.385989 11.871951-3.385989 8.120435 0 15.380805 4.123186 19.626858 11.011887 39.065321 64.166893 12.243621 88.531268-15.995137 106.37247-15.257939 9.597901-19.135393 13.135425-19.135393 23.438783 0 8.920089 2.399987 11.966148 10.829635 21.104325 11.011887 12.117683 27.624426 30.327483 27.624426 69.487001 0 12.64396-10.274689 22.915577-22.950389 22.915577zM433.051274 415.067752c-12.612219 0-22.824452-10.271618-22.824451-22.915577 0-21.441183-6.642968-28.639096-15.749404-38.636313-9.597901-10.488681-22.701585-24.821028-22.701586-51.953989 0-36.636665 25.283824-52.66047 40.418897-62.257347 9.352169-5.846385 12.671605-8.428624 13.721087-10.520422 2.091798-1.846065-0.494537-13.62689-12.429967-33.222007-6.520102-10.766154-3.074728-24.884509 7.69245-31.436351a22.49988 22.49988 0 0 1 11.87195-3.385989c8.120435 0 15.441215 4.123186 19.626858 10.983218 39.00184 64.166893 12.18014 88.558913-15.998208 106.400115-15.254867 9.566161-19.132321 13.103684-19.132321 23.438783 0 8.920089 2.399987 11.935431 10.829635 21.072584 11.011887 12.149423 27.621354 30.359224 27.621354 69.518742 0.001024 12.642936-10.270594 22.914554-22.946294 22.914553zM295.857808 415.067752c-12.609148 0-22.883837-10.271618-22.883837-22.915577 0-21.378726-6.583583-28.575616-15.626538-38.605596-9.660358-10.488681-22.824452-24.792359-22.824452-51.98573 0-36.482058 25.160958-52.537604 40.174189-62.134481 10.457965-6.460716 13.040203-8.797223 14.026205-10.583902 0.614331-3.137185 0.676788-11.689699-12.425872-33.250676-6.583583-10.797895-3.140256-24.915225 7.625898-31.467068a22.521382 22.521382 0 0 1 11.875022-3.385989c8.120435 0 15.441215 4.123186 19.687267 11.011887 38.942454 64.166893 12.18014 88.531268-15.995137 106.37247-15.318348 9.53442-19.195802 13.103684-19.195802 23.438783 0 8.920089 2.399987 11.935431 10.829635 21.072584 11.011887 12.149423 27.621354 30.359224 27.621354 69.518742-0.001024 12.642936-10.275713 22.914554-22.887932 22.914553z" fill="#2c2c2c" p-id="23510" data-spm-anchor-id="a313x.7781069.0.i15" class=""></path><path d="M173.002832 554.353016c16.086262 106.126738 57.366247 181.736574 120.580927 223.629866 17.900587 11.875022 31.867407 36.204585 31.867406 36.204585h190.594206s12.117683-23.898507 30.635673-35.928136c63.120483-41.125378 102.957813-133.316013 118.861823-223.907338h-492.540035z" fill="#1296db" p-id="23511" data-spm-anchor-id="a313x.7781069.0.i16" class="selected"></path><path d="M169.33937 521.376742c1.199994 11.875022 2.308861 23.901579 4.059705 35.130529h491.711713c2.122514-11.812565 3.414658-23.469499 4.796902-35.130529H169.33937z" fill="#ffffff" p-id="23512" data-spm-anchor-id="a313x.7781069.0.i18" class=""></path><path d="M659.636073 493.509655H178.782664c-7.874702 0-11.626218 7.783576-11.318028 11.626218 0.523205 6.891772 1.506135 13.197882 2.182923 19.87259h500.07788c0.737197-6.30611 1.782584-12.674676 2.277121-18.886589 0.306142-4.246052-3.877454-12.612219-12.366487-12.612219z" fill="#1296db" p-id="23513" data-spm-anchor-id="a313x.7781069.0.i17" class="selected"></path></svg>