<?xml version="1.0" standalone="no"?><!DOCTYPE svg PUBLIC "-//W3C//DTD SVG 1.1//EN" "http://www.w3.org/Graphics/SVG/1.1/DTD/svg11.dtd"><svg t="1546852554787" class="icon" style="" viewBox="0 0 1025 1024" version="1.1" xmlns="http://www.w3.org/2000/svg" p-id="25488" xmlns:xlink="http://www.w3.org/1999/xlink" width="200.1953125" height="200"><defs><style type="text/css"></style></defs><path d="M1024.064 405.728l0 453.728q0 37.728-26.848 64.576t-64.576 26.848l-841.152 0q-37.728 0-64.576-26.848t-26.848-64.576l0-453.728q25.152 28 57.728 49.728 206.848 140.576 284 197.152 32.576 24 52.864 37.44t54.016 27.424 62.848 14.016l1.152 0q29.152 0 62.848-14.016t54.016-27.424 52.864-37.44q97.152-70.272 284.576-197.152 32.576-22.272 57.152-49.728zM1024.064 237.728q0 45.152-28 86.272t-69.728 70.272q-214.848 149.152-267.424 185.728-5.728 4-24.288 17.44t-30.848 21.728-29.728 18.56-32.864 15.424-28.576 5.152l-1.152 0q-13.152 0-28.576-5.152t-32.864-15.424-29.728-18.56-30.848-21.728-24.288-17.44q-52-36.576-149.728-104.288t-117.152-81.44q-35.424-24-66.848-66.016t-31.424-78.016q0-44.576 23.712-74.272t67.712-29.728l841.152 0q37.152 0 64.288 26.848t27.136 64.576z" p-id="25489"></path></svg>