<?xml version="1.0" standalone="no"?><!DOCTYPE svg PUBLIC "-//W3C//DTD SVG 1.1//EN" "http://www.w3.org/Graphics/SVG/1.1/DTD/svg11.dtd"><svg t="1548752838386" class="icon" style="" viewBox="0 0 1024 1024" version="1.1" xmlns="http://www.w3.org/2000/svg" p-id="5304" xmlns:xlink="http://www.w3.org/1999/xlink" width="200" height="200"><defs><style type="text/css"></style></defs><path d="M844.73722 590.243015 723.304544 744.346789c-3.168156 3.717671-10.603499 11.234879-20.255323 11.234879-7.515161 0-14.160511-4.665253-17.797341-12.421914-2.533706-5.298679-3.717671-12.022825-3.717671-21.043269l0-87.573521c-35.048237-0.949628-137.179312 6.964622-196.826807 126.814244-3.87833 7.752568-9.969049 12.258185-16.691147 12.258185l-6.331195 0-5.14109-5.375427c-5.221932-6.012947-4.985548-13.843286-4.904707-16.375969 1.50426-45.805232 20.094664-270.320659 236.144278-280.20989l0-72.225975c-0.316202-4.193509-0.23536-13.371542 5.616928-20.648272 6.64535-8.390088 17.405415-10.366092 29.744441-4.429893l2.927679 1.423419 121.276111 145.403624c2.449795 3.165086 12.737092 17.406438 12.737092 34.017768C860.084767 572.598146 847.267856 587.469855 844.73722 590.243015L844.73722 590.243015zM824.87894 542.933523 717.525933 414.217976l0.080841 89.948615-14.950504 0c-153.872506 0-201.019293 115.500571-215.340463 194.217377 64.633043-86.388533 151.181211-96.828302 189.154058-96.828302 13.368472 0 21.75549 1.342578 22.070668 1.342578l12.81691 2.056845 0 104.425328L822.982754 567.692417c3.953032-4.427846 7.197936-10.281157 7.278777-12.498662C830.261531 551.792285 827.174216 545.863249 824.87894 542.933523L824.87894 542.933523zM732.243123 314.540789l-36.866652 0c-0.632403-15.426341-4.90266-29.824259-11.864212-42.168402l-0.080841 0c-9.492188-16.84976-24.209378-29.903054-41.533952-36.386722-0.079818 0-0.079818 0-0.079818 0-1.423419-0.556679-2.847861-1.030469-4.351098-1.423419-0.156566-0.082888-0.39295-0.161682-0.554632-0.23843-0.709151-0.157589-1.342578-0.318248-2.056845-0.558725-0.312108-0.074701-0.709151-0.155543-1.107217-0.23536-0.945535-0.23843-1.896186-0.473791-2.847861-0.633427-0.633427-0.152473-1.187035-0.23536-1.738597-0.314155-0.474814-0.078795-1.027399-0.157589-1.50426-0.314155-0.789992-0.080841-1.50426-0.161682-2.294252-0.23843-0.39295-0.078795-0.86981-0.157589-1.342578-0.157589-0.949628-0.157589-1.90028-0.23843-2.771113-0.23843-0.39295 0-0.789992-0.080841-1.107217-0.080841-1.106194-0.080841-2.213411-0.080841-3.319605-0.080841-0.001023 0-0.079818 0-0.161682 0L279.415804 231.471862c-43.509956 0-78.715783 38.844703-78.715783 86.785575l0 390.014738c0 47.937802 35.205826 84.329641 78.715783 84.329641l337.327772 0c7.91118 0 15.582907-1.26583 22.780843-3.559059l67.403133 0c-20.170388 27.056216-50.789757 44.222177-85.042885 44.222177L274.194896 833.264934c-60.916395 0-110.280686-54.428633-110.280686-121.67213L163.91421 312.403103c0-67.243497 49.365314-121.670084 110.280686-121.670084l348.240309 0c0.316202 0 0.635473 0 0.950651 0 0.63445 0 1.266853 0 1.977028 0.080841 46.912449 1.342578 86.548168 34.965349 101.262288 81.559551l-0.553609 0c3.954055 12.500709 6.170536 26.031886 6.170536 40.030715L732.2421 314.540789 732.243123 314.540789zM256.31262 427.034886l0-40.585347 319.368748 0 0 40.585347L256.31262 427.034886 256.31262 427.034886zM256.31262 534.233374 256.31262 493.64598l233.774301 0 0 40.587394L256.31262 534.233374 256.31262 534.233374zM256.31262 637.626185l0-40.583301 166.607552 0 0 40.583301L256.31262 637.626185 256.31262 637.626185z" p-id="5305"></path></svg>