<?xml version="1.0" standalone="no"?><!DOCTYPE svg PUBLIC "-//W3C//DTD SVG 1.1//EN" "http://www.w3.org/Graphics/SVG/1.1/DTD/svg11.dtd"><svg t="1547728057544" class="icon" style="" viewBox="0 0 1024 1024" version="1.1" xmlns="http://www.w3.org/2000/svg" p-id="3918" xmlns:xlink="http://www.w3.org/1999/xlink" width="200" height="200"><defs><style type="text/css"></style></defs><path d="M1020.928 499.968C918.528 317.696 723.456 204.288 512 204.288c-211.456 0-406.528 113.408-508.928 295.68-4.096 7.424-4.096 16.64 0 24.32 102.4 182.272 297.472 295.68 508.928 295.68 211.456 0 406.528-113.408 508.928-295.68C1025.024 516.608 1025.024 507.648 1020.928 499.968zM512 770.56c-188.928 0-363.264-98.56-458.752-258.304C148.736 352.512 323.072 253.696 512 253.696c188.928 0 363.52 98.56 458.752 258.304C875.52 672 700.928 770.56 512 770.56z" p-id="3919"></path><path d="M621.824 523.52c-67.072 0-121.344-54.272-121.344-121.344 0-29.44 11.008-56.32 28.416-77.312-5.632-0.512-11.264-0.768-16.896-0.768-105.728 0-191.488 84.224-191.488 188.16 0 103.936 85.76 188.16 191.488 188.16 105.728 0 191.488-84.224 191.488-188.16 0-6.656-0.256-13.312-1.024-19.712C680.96 511.488 652.8 523.52 621.824 523.52z" p-id="3920"></path></svg>