<?xml version="1.0" standalone="no"?><!DOCTYPE svg PUBLIC "-//W3C//DTD SVG 1.1//EN" "http://www.w3.org/Graphics/SVG/1.1/DTD/svg11.dtd"><svg t="1546831912484" class="icon" style="" viewBox="0 0 1024 1024" version="1.1" xmlns="http://www.w3.org/2000/svg" p-id="5157" xmlns:xlink="http://www.w3.org/1999/xlink" width="200" height="200"><defs><style type="text/css"></style></defs><path d="M960.412 929.623l-65.495-64.104a32.214 32.214 0 0 0-3.155-2.701c16.291-24.67 25.783-54.224 25.783-85.999 0-86.311-69.969-156.28-156.28-156.28s-156.28 69.969-156.28 156.28 69.969 156.28 156.28 156.28c31.621 0 61.042-9.4 85.639-25.546a32.236 32.236 0 0 0 3.248 3.704l65.495 64.104c6.227 6.094 14.306 9.131 22.381 9.131 8.305 0 16.604-3.213 22.871-9.617 12.361-12.63 12.144-32.89-0.487-45.252z" p-id="5158"></path><path d="M783.092 551.724V152.447h-29.527c-32.481 0-59.055-26.574-59.055-59.054V63.867H251.605c-32.48 0-59.054 26.573-59.054 59.054v620.068c0 32.478 26.574 59.054 59.054 59.054h297.519c-0.241-4.39-0.666-8.731-0.666-13.182-0.001-130.152 104.821-235.707 234.634-237.137zM323.428 271.733h320.268c9.561 0 17.312 12.712 17.312 28.391 0 15.679-7.751 28.391-17.312 28.391H323.428c-9.561 0-17.312-12.712-17.312-28.391 0-15.679 7.751-28.391 17.312-28.391z m0 102.918h320.268c9.561 0 17.312 12.712 17.312 28.391 0 15.679-7.751 28.391-17.312 28.391H323.428c-9.561 0-17.312-12.712-17.312-28.391 0-15.68 7.751-28.391 17.312-28.391z m-17.312 124.212c0-15.679 7.751-28.391 17.312-28.391h320.268c9.561 0 17.312 12.712 17.312 28.391 0 15.679-7.751 28.391-17.312 28.391H323.428c-9.561 0-17.312-12.712-17.312-28.391z" p-id="5159"></path></svg>