<?xml version="1.0" standalone="no"?><!DOCTYPE svg PUBLIC "-//W3C//DTD SVG 1.1//EN" "http://www.w3.org/Graphics/SVG/1.1/DTD/svg11.dtd"><svg t="1546934323696" class="icon" style="" viewBox="0 0 1024 1024" version="1.1" xmlns="http://www.w3.org/2000/svg" p-id="13964" xmlns:xlink="http://www.w3.org/1999/xlink" width="200" height="200"><defs><style type="text/css"></style></defs><path d="M512 116.363636C295.563636 116.363636 116.363636 295.563636 116.363636 512s179.2 395.636364 395.636364 395.636364 395.636364-176.872727 395.636364-395.636364S730.763636 116.363636 512 116.363636z m169.890909 409.6c2.327273 20.945455-13.963636 37.236364-32.581818 37.236364h-123.345455c-6.981818 2.327273-16.290909 0-27.927272 0h-2.327273c-20.945455 0-37.236364 6.981818-37.236364-13.963636V325.818182c0-20.945455 18.618182-37.236364 37.236364-37.236364 20.945455 0 37.236364 18.618182 37.236364 37.236364v160.581818h111.70909c20.945455 0 34.909091 16.290909 34.909091 34.909091 2.327273 2.327273 2.327273 4.654545 2.327273 4.654545z" fill="" p-id="13965"></path></svg>