<?xml version="1.0" standalone="no"?><!DOCTYPE svg PUBLIC "-//W3C//DTD SVG 1.1//EN" "http://www.w3.org/Graphics/SVG/1.1/DTD/svg11.dtd"><svg t="1555408449825" class="icon" style="" viewBox="0 0 1024 1024" version="1.1" xmlns="http://www.w3.org/2000/svg" p-id="2484" xmlns:xlink="http://www.w3.org/1999/xlink" width="200" height="200"><defs><style type="text/css"></style></defs><path d="M512 0C229.6832 0 0 229.6832 0 512s229.6832 512 512 512 512-229.6832 512-512S794.3168 0 512 0z m102.4 834.4576A53.077333 53.077333 0 0 1 561.373867 887.466667c-9.335467 0-18.602667-2.542933-26.811734-7.3728a16.503467 16.503467 0 0 1-2.9696-2.235734L305.595733 667.460267a18.8416 18.8416 0 0 0-8.174933-1.860267H155.374933A53.0432 53.0432 0 0 1 102.4 612.625067V394.308267A53.0432 53.0432 0 0 1 155.374933 341.333333h142.062934c2.833067 0 5.614933-0.631467 8.174933-1.860266L531.592533 129.0752c0.904533-0.853333 1.911467-1.604267 2.9696-2.235733A52.9408 52.9408 0 0 1 561.373867 119.466667 53.077333 53.077333 0 0 1 614.4 172.475733v661.981867zM665.6 665.6a17.0496 17.0496 0 0 1-12.066133-29.1328c73.335467-73.335467 73.335467-192.6656 0-266.001067a17.0496 17.0496 0 1 1 24.132266-24.132266c86.647467 86.647467 86.647467 227.618133 0 314.2656A17.015467 17.015467 0 0 1 665.6 665.6z m72.4992 63.982933a17.015467 17.015467 0 0 1-24.132267 0 17.0496 17.0496 0 0 1 0-24.132266c106.461867-106.461867 106.461867-279.722667 0-386.184534a17.0496 17.0496 0 1 1 24.132267-24.132266c119.773867 119.790933 119.773867 314.658133 0 434.449066z" p-id="2485"></path></svg>