<?xml version="1.0" standalone="no"?><!DOCTYPE svg PUBLIC "-//W3C//DTD SVG 1.1//EN" "http://www.w3.org/Graphics/SVG/1.1/DTD/svg11.dtd"><svg t="1546832020374" class="icon" style="" viewBox="0 0 1024 1024" version="1.1" xmlns="http://www.w3.org/2000/svg" p-id="10061" xmlns:xlink="http://www.w3.org/1999/xlink" width="200" height="200"><defs><style type="text/css"></style></defs><path d="M512 64C264.96 64 64 264.96 64 512s200.96 448 448 448 448-200.96 448-448S759.04 64 512 64zM764.608 800.48c0.192-12.928-7.52-25.216-20.288-30.272C723.52 762.016 672 737.92 608 726.528l0-13.6c64-62.816 101.728-180.48 101.728-269.376 0-126.88-66.112-199.648-181.6-199.648-118.528 0-192.32 74.656-192.32 199.648 0 42.944 16.224 183.936 80.224 261.408l0 17.12c-32 7.904-98.304 24.992-141.824 40.416-15.04 5.344-21.408 20.736-18.592 35.936C176.576 728.064 127.232 625.888 127.232 512c0-211.744 172.672-384 384.384-384 211.744 0 384.192 172.256 384.192 384C895.808 626.976 844.96 730.048 764.608 800.48z" p-id="10062"></path></svg>