<?xml version="1.0" standalone="no"?><!DOCTYPE svg PUBLIC "-//W3C//DTD SVG 1.1//EN" "http://www.w3.org/Graphics/SVG/1.1/DTD/svg11.dtd"><svg t="1546831955837" class="icon" style="" viewBox="0 0 1024 1024" version="1.1" xmlns="http://www.w3.org/2000/svg" p-id="6623" xmlns:xlink="http://www.w3.org/1999/xlink" width="200" height="200"><defs><style type="text/css"></style></defs><path d="M934.2 406.5L793.7 142.7c-20.8-39-61.2-63.4-105.3-63.4h-356c-44.1 0-84.5 24.4-105.3 63.4L86.7 406.5c-24.4 45.7-16.7 102 19 139.4l358.7 376c25 26.3 66.9 26.3 91.9 0l358.7-376c35.8-37.4 43.5-93.7 19.2-139.4z" fill="" p-id="6624"></path><path d="M655.2 320.7c1.9-4.9 4.2-8.6 6.8-11.1 2.7-2.5 6.6-4.5 12-6 5.7-1.5 11.6-2.8 17.6-4 6.1-1.1 12-2.1 17.7-2.8 5.7-0.8 10.9-1.4 15.7-2 4.7-0.6 8.4-0.9 11.1-0.9 6.8 0 10.3 2.3 10.3 6.8 0 2.7-1 5.9-2.9 9.7L549.8 715.9c-2.7 6.1-5.9 9.5-9.7 10.3-4.2 0.8-9.8 1.4-16.8 2s-12.2 0.9-15.7 0.9c-2.3 0-4.4-0.6-6.3-1.7-1.9-1.1-3.8-3.6-5.7-7.4L353.9 395.3c-7.6-17.8-15.6-29.8-23.9-35.9-8.4-6.1-18.4-9.1-30.2-9.1-3.8 0-7.8 0.2-12 0.6s-8.5 1-13.1 1.7l-3.4-27.3c15.6-4.6 31.3-8.7 47.3-12.5 15.9-3.8 30.7-7.1 44.4-10 13.7-2.8 25.2-5 34.7-6.5s15.6-2.3 18.2-2.3c5.7 0 9.9 1.8 12.5 5.4 2.7 3.6 5.3 8.6 8 15.1l66 254.2c5.7 22 36.6 25.3 45.7 4.5 0.1-0.2 0.1-0.3 0.2-0.5l106.9-252z" fill="#FFFFFF" p-id="6625"></path></svg>